<?xml version="1.0" standalone="no"?><!DOCTYPE svg PUBLIC "-//W3C//DTD SVG 1.1//EN" "http://www.w3.org/Graphics/SVG/1.1/DTD/svg11.dtd"><svg t="1729954222971" class="icon" viewBox="0 0 1024 1024" version="1.1" xmlns="http://www.w3.org/2000/svg" p-id="12927" xmlns:xlink="http://www.w3.org/1999/xlink" width="200" height="200"><path d="M512 981.328C252.8 981.328 42.672 771.216 42.672 512S252.784 42.672 512 42.672 981.328 252.784 981.328 512 771.216 981.328 512 981.328z" fill="#ffffff" p-id="12928"></path><path d="M746.016 363.696v-0.176H572.848c1.12-13.824 1.776-27.84 1.776-41.952 0-15.776-0.768-31.424-2.192-46.848 0.064-1.008 0.176-2.016 0.176-3.072v-0.176a58.128 58.128 0 1 0-116.272 0v0.16c0 3.968 0.416 7.872 1.184 11.6l-0.816 0.112c1.168 12.592 1.824 25.28 1.824 38.176 0 14.176-0.768 28.16-2.192 41.936H278.272v0.24a58.112 58.112 0 0 0-54.352 57.952v0.176c0 32.16 24.64 57.92 56.72 57.92 2.48 0 5.024 0.112 9.04 0.048l136.112-0.288A399.072 399.072 0 0 1 255.472 668.48c-0.832 0.48-1.6 0.96-2.432 1.424l0.064 0.048a58.08 58.08 0 0 0-27.296 49.216v0.176a58.128 58.128 0 0 0 91.52 47.568c109.232-63.104 193.072-165.248 232.48-287.312h186.88c3.008 0.064 7.504-0.128 7.504-0.128 34.912-0.704 57.84-25.392 57.84-57.472v-0.192a58.064 58.064 0 0 0-56-58.128z" fill="#ffffff" p-id="12929"></path><path d="M792.448 691.6c-0.112-0.24-0.288-0.416-0.416-0.592a59.44 59.44 0 0 0-7.024-9.984 516.08 516.08 0 0 0-139.248-134.592l-0.064 0.064a57.712 57.712 0 0 0-33.792-10.928 58.128 58.128 0 0 0-58.144 58.128v0.192c0 21.968 12.24 41.12 30.24 50.976 46.688 30.848 84.8 66.176 114.928 113.376l3.136 3.968c10.336 9.44 24.048 15.296 39.168 15.296a58.128 58.128 0 0 0 58.128-58.128v-0.176a59.312 59.312 0 0 0-6.912-27.6z" fill="#ffffff" p-id="12930"></path></svg>