<?xml version="1.0" standalone="no"?><!DOCTYPE svg PUBLIC "-//W3C//DTD SVG 1.1//EN" "http://www.w3.org/Graphics/SVG/1.1/DTD/svg11.dtd"><svg t="1730037439943" class="icon" viewBox="0 0 1024 1024" version="1.1" xmlns="http://www.w3.org/2000/svg" p-id="9820" xmlns:xlink="http://www.w3.org/1999/xlink" width="200" height="200"><path d="M735.8976 358.2976c-53.504 0-123.0336-42.7008-123.0336-95.1296L613.9904 153.6H263.8848C231.2704 153.6 204.8 179.5584 204.8 211.5072V812.544c0 31.9488 27.0336 75.264 59.648 75.264h522.24c32.6656 0 58.5216-43.3152 58.5216-75.264V358.2976h-135.3216 26.0096z m-150.7328 383.1808H302.2336v-38.8096h282.9312v38.8096z m136.6016-124.16H302.2336V578.56h419.5328v38.7584z m-50.5856-354.1504V153.6l174.0288 167.424h-114.944a58.4704 58.4704 0 0 1-59.0848-57.856z m-8.704 148.5824l-117.6064 84.5824c-3.584 3.2768-9.5232 0-9.5232-4.4032V435.9168c-92.672 0-128.256 26.368-176.9472 102.144 0 0 5.9392-173.5168 176.9472-173.5168V312.9344c0-4.4032 5.9392-7.68 9.5232-4.4032l117.5552 84.5824a10.8544 10.8544 0 0 1 0 18.6368z" fill="#2c2c2c" p-id="9821"></path></svg>